<mxfile host="app.diagrams.net" modified="2022-12-08T05:19:36.237Z" agent="5.0 (Windows NT 10.0; Win64; x64) AppleWebKit/537.36 (KHTML, like Gecko) Chrome/108.0.0.0 Safari/537.36" version="20.6.0" etag="cFMItCLOVSyt134fWfgw" type="github">
  <diagram id="itAvORsF6OXaUEdK6XZc" name="Page-1">
    <mxGraphModel dx="868" dy="3732" grid="1" gridSize="10" guides="1" tooltips="1" connect="1" arrows="1" fold="1" page="1" pageScale="1" pageWidth="2339" pageHeight="3300" math="0" shadow="0">
      <root>
        <mxCell id="0" />
        <mxCell id="1" parent="0" />
        <mxCell id="41JE56anOADjiyRB_7b0-7" value="" style="group" vertex="1" connectable="0" parent="1">
          <mxGeometry x="120" y="114" width="160" height="160" as="geometry" />
        </mxCell>
        <mxCell id="41JE56anOADjiyRB_7b0-1" value="" style="verticalLabelPosition=bottom;verticalAlign=top;html=1;shape=mxgraph.basic.donut;dx=28;fillColor=#FFD966;strokeColor=#6666FF;gradientDirection=east;sketch=0;shadow=1;fillStyle=auto;gradientColor=#FFFF66;perimeterSpacing=6;" vertex="1" parent="41JE56anOADjiyRB_7b0-7">
          <mxGeometry width="160" height="160" as="geometry" />
        </mxCell>
        <mxCell id="41JE56anOADjiyRB_7b0-2" value="PLAN" style="text;html=1;align=center;verticalAlign=middle;resizable=0;points=[];autosize=1;strokeColor=none;fillColor=none;fontSize=20;fontFamily=Verdana;fontStyle=1" vertex="1" parent="41JE56anOADjiyRB_7b0-7">
          <mxGeometry x="40" y="56" width="80" height="40" as="geometry" />
        </mxCell>
        <mxCell id="41JE56anOADjiyRB_7b0-5" value="PLAN" style="text;html=1;align=center;verticalAlign=middle;resizable=0;points=[];autosize=1;strokeColor=none;fillColor=none;fontSize=20;fontFamily=Verdana;fontStyle=1" vertex="1" parent="41JE56anOADjiyRB_7b0-7">
          <mxGeometry x="40" y="56" width="80" height="40" as="geometry" />
        </mxCell>
        <mxCell id="41JE56anOADjiyRB_7b0-6" value="" style="verticalLabelPosition=bottom;verticalAlign=top;html=1;shape=mxgraph.basic.donut;dx=27;fillColor=#FFD966;strokeColor=#6666FF;gradientDirection=east;sketch=0;shadow=1;fillStyle=auto;gradientColor=#FFFF66;perimeterSpacing=6;" vertex="1" parent="41JE56anOADjiyRB_7b0-7">
          <mxGeometry width="160" height="160" as="geometry" />
        </mxCell>
        <mxCell id="41JE56anOADjiyRB_7b0-9" value="" style="group;fillColor=none;" vertex="1" connectable="0" parent="1">
          <mxGeometry x="280" y="200" width="160" height="160" as="geometry" />
        </mxCell>
        <mxCell id="41JE56anOADjiyRB_7b0-10" value="" style="verticalLabelPosition=bottom;verticalAlign=top;html=1;shape=mxgraph.basic.donut;dx=27;fillColor=#FFD966;strokeColor=#6666FF;gradientDirection=east;sketch=0;shadow=1;fillStyle=auto;gradientColor=#FFFF66;perimeterSpacing=6;" vertex="1" parent="41JE56anOADjiyRB_7b0-9">
          <mxGeometry width="160" height="160" as="geometry" />
        </mxCell>
        <mxCell id="41JE56anOADjiyRB_7b0-11" value="CODE" style="text;html=1;align=center;verticalAlign=middle;resizable=0;points=[];autosize=1;strokeColor=none;fillColor=none;fontSize=20;fontFamily=Verdana;fontStyle=1" vertex="1" parent="41JE56anOADjiyRB_7b0-9">
          <mxGeometry x="35" y="56" width="90" height="40" as="geometry" />
        </mxCell>
        <mxCell id="41JE56anOADjiyRB_7b0-13" value="" style="verticalLabelPosition=bottom;verticalAlign=top;html=1;shape=mxgraph.basic.donut;dx=26;fillColor=#009999;strokeColor=#6666FF;gradientDirection=east;sketch=0;shadow=1;fillStyle=auto;gradientColor=#00FFFF;perimeterSpacing=6;" vertex="1" parent="41JE56anOADjiyRB_7b0-9">
          <mxGeometry width="160" height="160" as="geometry" />
        </mxCell>
        <mxCell id="41JE56anOADjiyRB_7b0-29" value="" style="html=1;shadow=0;dashed=0;align=center;verticalAlign=middle;shape=mxgraph.arrows2.jumpInArrow;dy=5;dx=21;arrowHead=37;sketch=0;fillStyle=auto;strokeColor=#6666FF;fontFamily=Verdana;fontSize=20;fillColor=#003366;gradientColor=#007FFF;gradientDirection=east;direction=south;" vertex="1" parent="41JE56anOADjiyRB_7b0-9">
          <mxGeometry x="-25" y="10" width="45" height="60" as="geometry" />
        </mxCell>
        <mxCell id="41JE56anOADjiyRB_7b0-14" value="" style="group" vertex="1" connectable="0" parent="1">
          <mxGeometry x="440" y="110" width="160" height="160" as="geometry" />
        </mxCell>
        <mxCell id="41JE56anOADjiyRB_7b0-15" value="" style="verticalLabelPosition=bottom;verticalAlign=top;html=1;shape=mxgraph.basic.donut;dx=26;fillColor=#FFD966;strokeColor=#6666FF;gradientDirection=east;sketch=0;shadow=1;fillStyle=auto;gradientColor=#FFFF66;perimeterSpacing=6;" vertex="1" parent="41JE56anOADjiyRB_7b0-14">
          <mxGeometry width="160" height="160" as="geometry" />
        </mxCell>
        <mxCell id="41JE56anOADjiyRB_7b0-16" value="BUILD" style="text;html=1;align=center;verticalAlign=middle;resizable=0;points=[];autosize=1;strokeColor=none;fillColor=none;fontSize=20;fontFamily=Verdana;fontStyle=1" vertex="1" parent="41JE56anOADjiyRB_7b0-14">
          <mxGeometry x="30" y="56" width="100" height="40" as="geometry" />
        </mxCell>
        <mxCell id="41JE56anOADjiyRB_7b0-18" value="" style="verticalLabelPosition=bottom;verticalAlign=top;html=1;shape=mxgraph.basic.donut;dx=25;fillColor=#B3FF66;strokeColor=#6666FF;gradientDirection=east;sketch=0;shadow=1;fillStyle=auto;gradientColor=#4D9900;perimeterSpacing=6;" vertex="1" parent="41JE56anOADjiyRB_7b0-14">
          <mxGeometry width="160" height="160" as="geometry" />
        </mxCell>
        <mxCell id="41JE56anOADjiyRB_7b0-19" value="" style="group" vertex="1" connectable="0" parent="1">
          <mxGeometry x="600" y="200" width="160" height="160" as="geometry" />
        </mxCell>
        <mxCell id="41JE56anOADjiyRB_7b0-20" value="" style="verticalLabelPosition=bottom;verticalAlign=top;html=1;shape=mxgraph.basic.donut;dx=28;fillColor=#FFD966;strokeColor=#6666FF;gradientDirection=east;sketch=0;shadow=1;fillStyle=auto;gradientColor=#FFFF66;perimeterSpacing=6;" vertex="1" parent="41JE56anOADjiyRB_7b0-19">
          <mxGeometry width="160" height="160" as="geometry" />
        </mxCell>
        <mxCell id="41JE56anOADjiyRB_7b0-21" value="TEST" style="text;html=1;align=center;verticalAlign=middle;resizable=0;points=[];autosize=1;strokeColor=none;fillColor=none;fontSize=20;fontFamily=Verdana;fontStyle=1" vertex="1" parent="41JE56anOADjiyRB_7b0-19">
          <mxGeometry x="40" y="56" width="80" height="40" as="geometry" />
        </mxCell>
        <mxCell id="41JE56anOADjiyRB_7b0-23" value="" style="verticalLabelPosition=bottom;verticalAlign=top;html=1;shape=mxgraph.basic.donut;dx=27;fillColor=#FF0000;strokeColor=#6666FF;gradientDirection=north;sketch=0;shadow=1;fillStyle=auto;gradientColor=#FF6666;perimeterSpacing=6;" vertex="1" parent="41JE56anOADjiyRB_7b0-19">
          <mxGeometry width="160" height="160" as="geometry" />
        </mxCell>
        <mxCell id="41JE56anOADjiyRB_7b0-30" value="" style="html=1;shadow=0;dashed=0;align=center;verticalAlign=middle;shape=mxgraph.arrows2.jumpInArrow;dy=5;dx=21;arrowHead=37;sketch=0;fillStyle=auto;strokeColor=#6666FF;fontFamily=Verdana;fontSize=20;fillColor=#003366;gradientColor=#007FFF;gradientDirection=east;direction=south;" vertex="1" parent="41JE56anOADjiyRB_7b0-19">
          <mxGeometry x="-20" y="20" width="45" height="60" as="geometry" />
        </mxCell>
        <mxCell id="41JE56anOADjiyRB_7b0-24" value="" style="group" vertex="1" connectable="0" parent="1">
          <mxGeometry x="755" y="107" width="160" height="160" as="geometry" />
        </mxCell>
        <mxCell id="41JE56anOADjiyRB_7b0-25" value="" style="verticalLabelPosition=bottom;verticalAlign=top;html=1;shape=mxgraph.basic.donut;dx=27;fillColor=#FFD966;strokeColor=#6666FF;gradientDirection=east;sketch=0;shadow=1;fillStyle=auto;gradientColor=#FFFF66;perimeterSpacing=6;" vertex="1" parent="41JE56anOADjiyRB_7b0-24">
          <mxGeometry width="160" height="160" as="geometry" />
        </mxCell>
        <mxCell id="41JE56anOADjiyRB_7b0-28" value="" style="verticalLabelPosition=bottom;verticalAlign=top;html=1;shape=mxgraph.basic.donut;dx=29;fillColor=#006600;strokeColor=#6666FF;gradientDirection=east;sketch=0;shadow=1;fillStyle=auto;gradientColor=#003300;perimeterSpacing=6;" vertex="1" parent="41JE56anOADjiyRB_7b0-24">
          <mxGeometry width="160" height="160" as="geometry" />
        </mxCell>
        <mxCell id="41JE56anOADjiyRB_7b0-26" value="RELEASE" style="text;html=1;align=center;verticalAlign=middle;resizable=0;points=[];autosize=1;strokeColor=none;fillColor=none;fontSize=20;fontFamily=Verdana;fontStyle=1" vertex="1" parent="41JE56anOADjiyRB_7b0-24">
          <mxGeometry x="20" y="56" width="120" height="40" as="geometry" />
        </mxCell>
        <mxCell id="41JE56anOADjiyRB_7b0-32" value="" style="html=1;shadow=0;dashed=0;align=center;verticalAlign=middle;shape=mxgraph.arrows2.jumpInArrow;dy=4.98;dx=29.78;arrowHead=29.51;sketch=0;fillStyle=auto;strokeColor=#6666FF;fontFamily=Verdana;fontSize=20;fillColor=#003366;gradientColor=#007FFF;gradientDirection=east;direction=east;rotation=-20;" vertex="1" parent="1">
          <mxGeometry x="399.5" y="203.5" width="60" height="36.5" as="geometry" />
        </mxCell>
        <mxCell id="41JE56anOADjiyRB_7b0-33" value="" style="html=1;shadow=0;dashed=0;align=center;verticalAlign=middle;shape=mxgraph.arrows2.jumpInArrow;dy=4.98;dx=29.78;arrowHead=29.51;sketch=0;fillStyle=auto;strokeColor=#6666FF;fontFamily=Verdana;fontSize=20;fillColor=#003366;gradientColor=#007FFF;gradientDirection=east;direction=east;rotation=-20;" vertex="1" parent="1">
          <mxGeometry x="730.5" y="213.5" width="60" height="36.5" as="geometry" />
        </mxCell>
        <mxCell id="41JE56anOADjiyRB_7b0-34" value="" style="group" vertex="1" connectable="0" parent="1">
          <mxGeometry x="904" y="201" width="160" height="160" as="geometry" />
        </mxCell>
        <mxCell id="41JE56anOADjiyRB_7b0-35" value="" style="verticalLabelPosition=bottom;verticalAlign=top;html=1;shape=mxgraph.basic.donut;dx=27;fillColor=#FFD966;strokeColor=#6666FF;gradientDirection=east;sketch=0;shadow=1;fillStyle=auto;gradientColor=#FFFF66;perimeterSpacing=6;" vertex="1" parent="41JE56anOADjiyRB_7b0-34">
          <mxGeometry width="160" height="160" as="geometry" />
        </mxCell>
        <mxCell id="41JE56anOADjiyRB_7b0-36" value="" style="verticalLabelPosition=bottom;verticalAlign=top;html=1;shape=mxgraph.basic.donut;dx=29;fillColor=#B266FF;strokeColor=#6666FF;gradientDirection=east;sketch=0;shadow=1;fillStyle=auto;gradientColor=#CC00CC;perimeterSpacing=6;" vertex="1" parent="41JE56anOADjiyRB_7b0-34">
          <mxGeometry width="160" height="160" as="geometry" />
        </mxCell>
        <mxCell id="41JE56anOADjiyRB_7b0-37" value="DEPLOY" style="text;html=1;align=center;verticalAlign=middle;resizable=0;points=[];autosize=1;strokeColor=none;fillColor=none;fontSize=20;fontFamily=Verdana;fontStyle=1" vertex="1" parent="41JE56anOADjiyRB_7b0-34">
          <mxGeometry x="25" y="56" width="110" height="40" as="geometry" />
        </mxCell>
        <mxCell id="41JE56anOADjiyRB_7b0-38" value="" style="html=1;shadow=0;dashed=0;align=center;verticalAlign=middle;shape=mxgraph.arrows2.jumpInArrow;dy=5;dx=21;arrowHead=37;sketch=0;fillStyle=auto;strokeColor=#6666FF;fontFamily=Verdana;fontSize=20;fillColor=#003366;gradientColor=#007FFF;gradientDirection=east;direction=south;" vertex="1" parent="1">
          <mxGeometry x="890" y="210" width="45" height="60" as="geometry" />
        </mxCell>
        <mxCell id="41JE56anOADjiyRB_7b0-39" value="" style="html=1;shadow=0;dashed=0;align=center;verticalAlign=middle;shape=mxgraph.arrows2.arrow;dy=0.88;dx=12;direction=north;notch=0;sketch=0;fillStyle=auto;strokeColor=#6666FF;fontFamily=Verdana;fontSize=20;fillColor=#003366;gradientColor=#007FFF;gradientDirection=east;" vertex="1" parent="1">
          <mxGeometry x="186" y="290" width="25" height="100" as="geometry" />
        </mxCell>
        <mxCell id="41JE56anOADjiyRB_7b0-40" value="" style="html=1;shadow=0;dashed=0;align=center;verticalAlign=middle;shape=mxgraph.arrows2.arrow;dy=0.88;dx=12;direction=north;notch=0;sketch=0;fillStyle=auto;strokeColor=#6666FF;fontFamily=Verdana;fontSize=20;fillColor=#003366;gradientColor=#007FFF;gradientDirection=east;" vertex="1" parent="1">
          <mxGeometry x="348" y="369" width="25" height="100" as="geometry" />
        </mxCell>
        <mxCell id="41JE56anOADjiyRB_7b0-41" value="" style="html=1;shadow=0;dashed=0;align=center;verticalAlign=middle;shape=mxgraph.arrows2.arrow;dy=0.88;dx=12;direction=north;notch=0;sketch=0;fillStyle=auto;strokeColor=#6666FF;fontFamily=Verdana;fontSize=20;fillColor=#003366;gradientColor=#007FFF;gradientDirection=east;" vertex="1" parent="1">
          <mxGeometry x="668" y="369" width="25" height="100" as="geometry" />
        </mxCell>
        <mxCell id="41JE56anOADjiyRB_7b0-42" value="" style="html=1;shadow=0;dashed=0;align=center;verticalAlign=middle;shape=mxgraph.arrows2.arrow;dy=0.88;dx=12;direction=north;notch=0;sketch=0;fillStyle=auto;strokeColor=#6666FF;fontFamily=Verdana;fontSize=20;fillColor=#003366;gradientColor=#007FFF;gradientDirection=east;" vertex="1" parent="1">
          <mxGeometry x="509" y="285" width="25" height="100" as="geometry" />
        </mxCell>
        <mxCell id="41JE56anOADjiyRB_7b0-43" value="" style="html=1;shadow=0;dashed=0;align=center;verticalAlign=middle;shape=mxgraph.arrows2.arrow;dy=0.88;dx=12;direction=north;notch=0;sketch=0;fillStyle=auto;strokeColor=#6666FF;fontFamily=Verdana;fontSize=20;fillColor=#003366;gradientColor=#007FFF;gradientDirection=east;" vertex="1" parent="1">
          <mxGeometry x="828" y="278" width="25" height="100" as="geometry" />
        </mxCell>
        <mxCell id="41JE56anOADjiyRB_7b0-44" value="" style="html=1;shadow=0;dashed=0;align=center;verticalAlign=middle;shape=mxgraph.arrows2.arrow;dy=0.88;dx=12;direction=north;notch=0;sketch=0;fillStyle=auto;strokeColor=#6666FF;fontFamily=Verdana;fontSize=20;fillColor=#003366;gradientColor=#007FFF;gradientDirection=east;" vertex="1" parent="1">
          <mxGeometry x="978" y="378" width="25" height="100" as="geometry" />
        </mxCell>
        <mxCell id="41JE56anOADjiyRB_7b0-45" value="" style="html=1;shadow=0;dashed=0;align=center;verticalAlign=middle;shape=mxgraph.arrows2.arrow;dy=0.88;dx=12;direction=south;notch=0;sketch=0;fillStyle=auto;strokeColor=#6666FF;fontFamily=Verdana;fontSize=20;fillColor=#003366;gradientColor=#007FFF;gradientDirection=east;" vertex="1" parent="1">
          <mxGeometry x="187.5" y="7" width="25" height="100" as="geometry" />
        </mxCell>
        <mxCell id="41JE56anOADjiyRB_7b0-46" value="" style="html=1;shadow=0;dashed=0;align=center;verticalAlign=middle;shape=mxgraph.arrows2.arrow;dy=0.88;dx=12;direction=south;notch=0;sketch=0;fillStyle=auto;strokeColor=#6666FF;fontFamily=Verdana;fontSize=20;fillColor=#003366;gradientColor=#007FFF;gradientDirection=east;" vertex="1" parent="1">
          <mxGeometry x="347.5" y="97" width="25" height="100" as="geometry" />
        </mxCell>
        <mxCell id="41JE56anOADjiyRB_7b0-47" value="" style="html=1;shadow=0;dashed=0;align=center;verticalAlign=middle;shape=mxgraph.arrows2.arrow;dy=0.88;dx=12;direction=south;notch=0;sketch=0;fillStyle=auto;strokeColor=#6666FF;fontFamily=Verdana;fontSize=20;fillColor=#003366;gradientColor=#007FFF;gradientDirection=east;" vertex="1" parent="1">
          <mxGeometry x="507.5" y="-3" width="25" height="100" as="geometry" />
        </mxCell>
        <mxCell id="41JE56anOADjiyRB_7b0-48" value="" style="html=1;shadow=0;dashed=0;align=center;verticalAlign=middle;shape=mxgraph.arrows2.arrow;dy=0.88;dx=12;direction=south;notch=0;sketch=0;fillStyle=auto;strokeColor=#6666FF;fontFamily=Verdana;fontSize=20;fillColor=#003366;gradientColor=#007FFF;gradientDirection=east;" vertex="1" parent="1">
          <mxGeometry x="667.5" y="97" width="25" height="100" as="geometry" />
        </mxCell>
        <mxCell id="41JE56anOADjiyRB_7b0-49" value="" style="html=1;shadow=0;dashed=0;align=center;verticalAlign=middle;shape=mxgraph.arrows2.arrow;dy=0.88;dx=12;direction=south;notch=0;sketch=0;fillStyle=auto;strokeColor=#6666FF;fontFamily=Verdana;fontSize=20;fillColor=#003366;gradientColor=#007FFF;gradientDirection=east;" vertex="1" parent="1">
          <mxGeometry x="823.5" width="25" height="100" as="geometry" />
        </mxCell>
        <mxCell id="41JE56anOADjiyRB_7b0-50" value="" style="html=1;shadow=0;dashed=0;align=center;verticalAlign=middle;shape=mxgraph.arrows2.arrow;dy=0.88;dx=12;direction=south;notch=0;sketch=0;fillStyle=auto;strokeColor=#6666FF;fontFamily=Verdana;fontSize=20;fillColor=#003366;gradientColor=#007FFF;gradientDirection=east;" vertex="1" parent="1">
          <mxGeometry x="973.5" y="90" width="25" height="100" as="geometry" />
        </mxCell>
        <mxCell id="41JE56anOADjiyRB_7b0-51" value="SECURITY&lt;br&gt;ANALYSIS" style="text;html=1;align=center;verticalAlign=middle;resizable=0;points=[];autosize=1;strokeColor=none;fillColor=none;fontSize=20;fontFamily=Verdana;fontColor=#999999;" vertex="1" parent="1">
          <mxGeometry x="136" y="-47" width="130" height="60" as="geometry" />
        </mxCell>
        <mxCell id="41JE56anOADjiyRB_7b0-52" value="UNIT &lt;br&gt;TESTING" style="text;html=1;align=center;verticalAlign=middle;resizable=0;points=[];autosize=1;strokeColor=none;fillColor=none;fontSize=20;fontFamily=Verdana;fontColor=#999999;" vertex="1" parent="1">
          <mxGeometry x="305.5" y="40" width="110" height="60" as="geometry" />
        </mxCell>
        <mxCell id="41JE56anOADjiyRB_7b0-53" value="CODE &lt;br&gt;COVERAGE" style="text;html=1;align=center;verticalAlign=middle;resizable=0;points=[];autosize=1;strokeColor=none;fillColor=none;fontSize=20;fontFamily=Verdana;fontColor=#999999;" vertex="1" parent="1">
          <mxGeometry x="451.5" y="-54" width="140" height="60" as="geometry" />
        </mxCell>
        <mxCell id="41JE56anOADjiyRB_7b0-54" value="INTEGRATION&lt;br&gt;TESTING" style="text;html=1;align=center;verticalAlign=middle;resizable=0;points=[];autosize=1;strokeColor=none;fillColor=none;fontSize=20;fontFamily=Verdana;fontColor=#999999;" vertex="1" parent="1">
          <mxGeometry x="595.5" y="43" width="170" height="60" as="geometry" />
        </mxCell>
        <mxCell id="41JE56anOADjiyRB_7b0-55" value="PENETRATION&lt;br&gt;TESTING" style="text;html=1;align=center;verticalAlign=middle;resizable=0;points=[];autosize=1;strokeColor=none;fillColor=none;fontSize=20;fontFamily=Verdana;fontColor=#999999;" vertex="1" parent="1">
          <mxGeometry x="751" y="-53" width="170" height="60" as="geometry" />
        </mxCell>
        <mxCell id="41JE56anOADjiyRB_7b0-56" value="MONITORING &amp;amp;&lt;br&gt;&amp;nbsp;ALERTS" style="text;html=1;align=center;verticalAlign=middle;resizable=0;points=[];autosize=1;strokeColor=none;fillColor=none;fontSize=20;fontFamily=Verdana;fontColor=#999999;" vertex="1" parent="1">
          <mxGeometry x="896" y="37" width="180" height="60" as="geometry" />
        </mxCell>
        <mxCell id="41JE56anOADjiyRB_7b0-57" value="SECURITY&lt;br&gt;TEST PLAN" style="text;html=1;align=center;verticalAlign=middle;resizable=0;points=[];autosize=1;strokeColor=none;fillColor=none;fontSize=20;fontFamily=Verdana;fontColor=#999999;" vertex="1" parent="1">
          <mxGeometry x="136" y="380" width="130" height="60" as="geometry" />
        </mxCell>
        <mxCell id="41JE56anOADjiyRB_7b0-58" value="GIT &amp;amp; IDE CONTROLS" style="text;html=1;align=center;verticalAlign=middle;resizable=0;points=[];autosize=1;strokeColor=none;fillColor=none;fontSize=20;fontFamily=Verdana;fontColor=#999999;" vertex="1" parent="1">
          <mxGeometry x="240.5" y="469" width="240" height="40" as="geometry" />
        </mxCell>
        <mxCell id="41JE56anOADjiyRB_7b0-59" value="SAST" style="text;html=1;align=center;verticalAlign=middle;resizable=0;points=[];autosize=1;strokeColor=none;fillColor=none;fontSize=20;fontFamily=Verdana;fontColor=#999999;" vertex="1" parent="1">
          <mxGeometry x="480" y="385" width="80" height="40" as="geometry" />
        </mxCell>
        <mxCell id="41JE56anOADjiyRB_7b0-60" value="DAST" style="text;html=1;align=center;verticalAlign=middle;resizable=0;points=[];autosize=1;strokeColor=none;fillColor=none;fontSize=20;fontFamily=Verdana;fontColor=#999999;" vertex="1" parent="1">
          <mxGeometry x="640.5" y="470" width="80" height="40" as="geometry" />
        </mxCell>
        <mxCell id="41JE56anOADjiyRB_7b0-61" value="ACCEPTANCE&lt;br&gt;TESTING" style="text;html=1;align=center;verticalAlign=middle;resizable=0;points=[];autosize=1;strokeColor=none;fillColor=none;fontSize=20;fontFamily=Verdana;fontColor=#999999;" vertex="1" parent="1">
          <mxGeometry x="758" y="369" width="160" height="60" as="geometry" />
        </mxCell>
        <mxCell id="41JE56anOADjiyRB_7b0-62" value="PORODUCTION &lt;br&gt;VALIDATION" style="text;html=1;align=center;verticalAlign=middle;resizable=0;points=[];autosize=1;strokeColor=none;fillColor=none;fontSize=20;fontFamily=Verdana;fontColor=#999999;" vertex="1" parent="1">
          <mxGeometry x="900.5" y="468" width="180" height="60" as="geometry" />
        </mxCell>
      </root>
    </mxGraphModel>
  </diagram>
</mxfile>
